<svg xmlns="http://www.w3.org/2000/svg" xmlns:xlink="http://www.w3.org/1999/xlink" width="72" zoomAndPan="magnify" viewBox="0 0 54 54" height="72" preserveAspectRatio="xMidYMid meet" version="1.0"><defs><g/><clipPath id="d59d0b8ec3"><path d="M 5.589844 5.097656 L 48.410156 5.097656 L 48.410156 47.921875 L 5.589844 47.921875 Z M 5.589844 5.097656 " clip-rule="nonzero"/></clipPath><clipPath id="6ffa8f9324"><path d="M 27 5.097656 C 15.175781 5.097656 5.589844 14.683594 5.589844 26.507812 C 5.589844 38.335938 15.175781 47.921875 27 47.921875 C 38.824219 47.921875 48.410156 38.335938 48.410156 26.507812 C 48.410156 14.683594 38.824219 5.097656 27 5.097656 " clip-rule="nonzero"/></clipPath><clipPath id="f8ff28147d"><path d="M 17.3125 38 L 36 38 L 36 40.636719 L 17.3125 40.636719 Z M 17.3125 38 " clip-rule="nonzero"/></clipPath><clipPath id="305d39e262"><path d="M 17.3125 27 L 39 27 L 39 40 L 17.3125 40 Z M 17.3125 27 " clip-rule="nonzero"/></clipPath><clipPath id="ad7e422883"><path d="M 25 15.597656 L 28 15.597656 L 28 27 L 25 27 Z M 25 15.597656 " clip-rule="nonzero"/></clipPath><clipPath id="2df7108d81"><path d="M 8.957031 25.730469 L 10.429688 25.730469 L 10.429688 27.203125 L 8.957031 27.203125 Z M 8.957031 25.730469 " clip-rule="nonzero"/></clipPath><clipPath id="8050209b4a"><path d="M 43.5 25.730469 L 44.972656 25.730469 L 44.972656 27.203125 L 43.5 27.203125 Z M 43.5 25.730469 " clip-rule="nonzero"/></clipPath></defs><g clip-path="url(#d59d0b8ec3)"><g clip-path="url(#6ffa8f9324)"><path fill="#5c3f32" d="M 5.589844 5.097656 L 48.410156 5.097656 L 48.410156 47.921875 L 5.589844 47.921875 Z M 5.589844 5.097656 " fill-opacity="1" fill-rule="nonzero"/></g></g><g clip-path="url(#f8ff28147d)"><path fill="#fefbed" d="M 35.800781 38.1875 C 35.800781 39.535156 31.664062 40.625 26.558594 40.625 C 21.453125 40.625 17.3125 39.53125 17.3125 38.1875 " fill-opacity="1" fill-rule="nonzero"/></g><g clip-path="url(#305d39e262)"><path fill="#fefbed" d="M 38.253906 30 C 37.601562 29.339844 36.640625 29.117188 35.671875 29.300781 C 35.757812 28.632812 35.800781 27.941406 35.800781 27.238281 L 17.3125 27.238281 C 17.3125 33.957031 21.449219 39.40625 26.554688 39.40625 C 29.261719 39.40625 31.695312 37.875 33.382812 35.4375 C 34.578125 36.238281 36.410156 35.949219 37.710938 34.679688 C 39.160156 33.265625 39.402344 31.164062 38.253906 30 Z M 38.046875 32.488281 C 37.960938 33.238281 37.578125 33.972656 36.976562 34.5625 C 36.375 35.152344 35.625 35.519531 34.875 35.585938 C 34.347656 35.636719 33.863281 35.539062 33.476562 35.304688 C 34.445312 33.863281 35.164062 32.113281 35.527344 30.1875 C 35.597656 30.175781 35.671875 30.164062 35.742188 30.15625 C 36.449219 30.089844 37.074219 30.289062 37.503906 30.726562 C 37.929688 31.160156 38.125 31.789062 38.046875 32.488281 Z M 38.046875 32.488281 " fill-opacity="1" fill-rule="nonzero"/></g><g clip-path="url(#ad7e422883)"><path fill="#fefbed" d="M 26.605469 15.683594 C 26.589844 15.652344 26.558594 15.644531 26.535156 15.652344 C 26.507812 15.660156 26.484375 15.679688 26.464844 15.695312 C 26.445312 15.714844 26.421875 15.734375 26.414062 15.757812 C 26.410156 15.769531 26.402344 15.785156 26.398438 15.792969 L 26.382812 15.832031 C 26.339844 15.949219 26.296875 16.0625 26.261719 16.179688 C 26.191406 16.410156 26.144531 16.636719 26.117188 16.867188 C 26.09375 17.09375 26.101562 17.316406 26.144531 17.523438 C 26.15625 17.574219 26.164062 17.621094 26.183594 17.671875 L 26.207031 17.746094 L 26.238281 17.816406 C 26.273438 17.914062 26.328125 18.003906 26.378906 18.09375 C 26.433594 18.183594 26.5 18.273438 26.570312 18.367188 L 26.789062 18.652344 C 26.867188 18.753906 26.945312 18.855469 27.019531 18.96875 C 27.097656 19.082031 27.167969 19.195312 27.230469 19.316406 C 27.363281 19.5625 27.46875 19.820312 27.535156 20.101562 C 27.605469 20.382812 27.625 20.6875 27.589844 20.980469 C 27.570312 21.128906 27.539062 21.269531 27.503906 21.410156 C 27.464844 21.550781 27.414062 21.679688 27.363281 21.808594 C 27.253906 22.066406 27.121094 22.296875 26.984375 22.515625 C 26.851562 22.734375 26.714844 22.933594 26.585938 23.132812 C 26.519531 23.234375 26.457031 23.335938 26.398438 23.433594 C 26.339844 23.535156 26.28125 23.628906 26.238281 23.730469 C 26.1875 23.828125 26.144531 23.929688 26.109375 24.027344 C 26.074219 24.128906 26.042969 24.234375 26.015625 24.335938 C 25.976562 24.539062 25.972656 24.753906 26.011719 24.96875 C 26.03125 25.074219 26.0625 25.179688 26.109375 25.277344 C 26.152344 25.378906 26.207031 25.472656 26.277344 25.558594 C 26.292969 25.582031 26.316406 25.597656 26.332031 25.617188 C 26.34375 25.628906 26.351562 25.636719 26.363281 25.648438 L 26.394531 25.671875 C 26.433594 25.707031 26.492188 25.75 26.542969 25.796875 C 26.59375 25.847656 26.632812 25.898438 26.664062 25.964844 C 26.679688 25.992188 26.691406 26.03125 26.683594 26.066406 C 26.679688 26.101562 26.65625 26.132812 26.628906 26.148438 C 26.648438 26.125 26.65625 26.09375 26.648438 26.066406 C 26.644531 26.042969 26.628906 26.023438 26.609375 26.003906 C 26.570312 25.964844 26.519531 25.933594 26.46875 25.90625 C 26.414062 25.882812 26.367188 25.867188 26.296875 25.84375 L 26.253906 25.824219 C 26.238281 25.816406 26.222656 25.808594 26.207031 25.796875 C 26.179688 25.785156 26.148438 25.769531 26.117188 25.75 C 25.882812 25.597656 25.707031 25.363281 25.589844 25.109375 C 25.535156 24.980469 25.488281 24.84375 25.464844 24.707031 C 25.441406 24.570312 25.425781 24.429688 25.425781 24.285156 C 25.425781 24.140625 25.445312 24.003906 25.46875 23.863281 C 25.496094 23.730469 25.53125 23.59375 25.574219 23.464844 C 25.660156 23.203125 25.769531 22.964844 25.890625 22.738281 C 26.007812 22.511719 26.132812 22.296875 26.242188 22.089844 C 26.464844 21.675781 26.648438 21.269531 26.695312 20.882812 C 26.738281 20.5 26.644531 20.089844 26.46875 19.691406 C 26.421875 19.589844 26.375 19.492188 26.316406 19.398438 C 26.261719 19.300781 26.203125 19.203125 26.136719 19.097656 C 26.007812 18.890625 25.867188 18.667969 25.75 18.414062 C 25.691406 18.28125 25.644531 18.148438 25.609375 18.003906 C 25.574219 17.863281 25.558594 17.71875 25.554688 17.574219 C 25.550781 17.289062 25.601562 17.011719 25.691406 16.761719 C 25.78125 16.511719 25.898438 16.277344 26.042969 16.0625 C 26.113281 15.957031 26.1875 15.855469 26.273438 15.757812 L 26.304688 15.722656 C 26.316406 15.707031 26.328125 15.695312 26.34375 15.683594 C 26.375 15.660156 26.402344 15.644531 26.433594 15.628906 C 26.464844 15.613281 26.503906 15.609375 26.539062 15.609375 C 26.558594 15.609375 26.574219 15.617188 26.589844 15.628906 C 26.59375 15.652344 26.597656 15.667969 26.605469 15.683594 Z M 26.605469 15.683594 " fill-opacity="1" fill-rule="nonzero"/></g><path fill="#fefbed" d="M 29.351562 18.765625 C 29.335938 18.746094 29.316406 18.746094 29.304688 18.753906 C 29.289062 18.757812 29.277344 18.773438 29.265625 18.78125 C 29.253906 18.796875 29.246094 18.8125 29.242188 18.828125 C 29.234375 18.832031 29.234375 18.84375 29.234375 18.847656 L 29.226562 18.878906 C 29.199219 18.957031 29.179688 19.03125 29.164062 19.113281 C 29.128906 19.265625 29.109375 19.421875 29.105469 19.566406 C 29.101562 19.710938 29.113281 19.851562 29.148438 19.976562 C 29.171875 20.035156 29.191406 20.097656 29.214844 20.152344 C 29.242188 20.207031 29.277344 20.257812 29.3125 20.3125 C 29.347656 20.367188 29.390625 20.421875 29.4375 20.476562 L 29.585938 20.660156 C 29.636719 20.726562 29.695312 20.796875 29.746094 20.875 C 29.796875 20.949219 29.847656 21.03125 29.898438 21.117188 C 29.988281 21.285156 30.070312 21.464844 30.113281 21.664062 C 30.164062 21.867188 30.179688 22.082031 30.152344 22.300781 C 30.140625 22.40625 30.117188 22.511719 30.09375 22.609375 C 30.0625 22.710938 30.027344 22.800781 29.992188 22.890625 C 29.917969 23.066406 29.824219 23.226562 29.730469 23.371094 C 29.636719 23.515625 29.546875 23.648438 29.457031 23.773438 C 29.410156 23.839844 29.371094 23.898438 29.332031 23.964844 C 29.289062 24.023438 29.253906 24.085938 29.21875 24.148438 C 29.191406 24.210938 29.15625 24.269531 29.128906 24.335938 C 29.105469 24.394531 29.078125 24.460938 29.066406 24.519531 C 29.035156 24.640625 29.019531 24.773438 29.035156 24.902344 C 29.039062 24.96875 29.054688 25.035156 29.074219 25.097656 C 29.09375 25.164062 29.125 25.222656 29.164062 25.285156 C 29.175781 25.296875 29.183594 25.308594 29.195312 25.324219 C 29.207031 25.339844 29.21875 25.347656 29.230469 25.363281 C 29.25 25.386719 29.296875 25.417969 29.324219 25.453125 C 29.355469 25.488281 29.386719 25.527344 29.402344 25.574219 C 29.410156 25.597656 29.417969 25.625 29.410156 25.648438 C 29.40625 25.671875 29.386719 25.691406 29.367188 25.703125 C 29.375 25.683594 29.382812 25.664062 29.371094 25.648438 C 29.367188 25.632812 29.355469 25.625 29.339844 25.609375 C 29.3125 25.589844 29.28125 25.574219 29.246094 25.558594 C 29.210938 25.542969 29.179688 25.542969 29.128906 25.523438 C 29.105469 25.519531 29.085938 25.507812 29.066406 25.5 C 29.042969 25.488281 29.019531 25.476562 29 25.464844 C 28.828125 25.367188 28.691406 25.207031 28.609375 25.035156 C 28.5625 24.945312 28.53125 24.847656 28.507812 24.753906 C 28.480469 24.660156 28.472656 24.558594 28.472656 24.453125 C 28.472656 24.347656 28.480469 24.253906 28.496094 24.160156 C 28.511719 24.0625 28.53125 23.96875 28.5625 23.878906 C 28.59375 23.789062 28.621094 23.703125 28.65625 23.621094 C 28.691406 23.535156 28.726562 23.453125 28.769531 23.378906 C 28.84375 23.226562 28.925781 23.078125 28.996094 22.945312 C 29.136719 22.671875 29.242188 22.421875 29.265625 22.199219 C 29.289062 21.984375 29.242188 21.746094 29.136719 21.496094 C 29.078125 21.371094 29.019531 21.253906 28.9375 21.117188 C 28.859375 20.976562 28.761719 20.824219 28.6875 20.640625 C 28.648438 20.550781 28.617188 20.453125 28.597656 20.347656 C 28.574219 20.246094 28.566406 20.140625 28.566406 20.042969 C 28.574219 19.839844 28.613281 19.652344 28.683594 19.476562 C 28.753906 19.308594 28.84375 19.152344 28.949219 19.011719 C 29.003906 18.941406 29.058594 18.878906 29.121094 18.816406 L 29.144531 18.792969 C 29.15625 18.78125 29.164062 18.773438 29.175781 18.765625 C 29.195312 18.753906 29.21875 18.742188 29.242188 18.730469 C 29.265625 18.726562 29.289062 18.722656 29.316406 18.722656 C 29.332031 18.726562 29.339844 18.730469 29.351562 18.742188 C 29.347656 18.746094 29.347656 18.757812 29.351562 18.765625 Z M 29.351562 18.765625 " fill-opacity="1" fill-rule="nonzero"/><path fill="#fefbed" d="M 23.746094 21.640625 C 23.738281 21.628906 23.726562 21.636719 23.722656 21.640625 C 23.71875 21.644531 23.710938 21.65625 23.707031 21.664062 C 23.703125 21.675781 23.703125 21.6875 23.699219 21.691406 C 23.699219 21.695312 23.699219 21.699219 23.699219 21.699219 C 23.699219 21.707031 23.699219 21.710938 23.699219 21.71875 C 23.691406 21.769531 23.6875 21.820312 23.683594 21.867188 C 23.675781 21.960938 23.675781 22.050781 23.6875 22.128906 C 23.699219 22.210938 23.71875 22.28125 23.746094 22.335938 C 23.761719 22.359375 23.777344 22.390625 23.792969 22.410156 C 23.808594 22.429688 23.828125 22.449219 23.847656 22.476562 C 23.894531 22.519531 23.949219 22.578125 24.015625 22.65625 C 24.078125 22.730469 24.160156 22.828125 24.21875 22.933594 C 24.28125 23.042969 24.335938 23.164062 24.371094 23.292969 C 24.40625 23.429688 24.414062 23.578125 24.402344 23.722656 C 24.390625 23.800781 24.375 23.871094 24.359375 23.933594 C 24.339844 24 24.316406 24.058594 24.289062 24.121094 C 24.238281 24.234375 24.179688 24.335938 24.121094 24.417969 C 24 24.59375 23.886719 24.71875 23.804688 24.839844 C 23.71875 24.957031 23.65625 25.054688 23.640625 25.199219 C 23.636719 25.234375 23.636719 25.269531 23.640625 25.304688 C 23.648438 25.339844 23.652344 25.375 23.667969 25.410156 C 23.671875 25.421875 23.683594 25.445312 23.691406 25.464844 C 23.699219 25.476562 23.726562 25.503906 23.742188 25.527344 C 23.757812 25.554688 23.777344 25.582031 23.78125 25.613281 C 23.789062 25.628906 23.789062 25.648438 23.78125 25.667969 C 23.777344 25.6875 23.761719 25.699219 23.746094 25.699219 C 23.753906 25.683594 23.753906 25.671875 23.742188 25.667969 C 23.738281 25.664062 23.726562 25.660156 23.71875 25.652344 C 23.699219 25.648438 23.675781 25.644531 23.65625 25.636719 C 23.636719 25.632812 23.621094 25.636719 23.585938 25.628906 C 23.558594 25.625 23.527344 25.609375 23.496094 25.597656 C 23.375 25.546875 23.28125 25.449219 23.214844 25.332031 C 23.148438 25.21875 23.109375 25.09375 23.101562 24.953125 C 23.09375 24.882812 23.101562 24.820312 23.105469 24.757812 C 23.109375 24.695312 23.125 24.632812 23.140625 24.574219 C 23.199219 24.339844 23.300781 24.144531 23.371094 23.988281 C 23.445312 23.835938 23.492188 23.703125 23.496094 23.621094 C 23.5 23.578125 23.5 23.535156 23.492188 23.484375 C 23.488281 23.433594 23.464844 23.375 23.445312 23.308594 C 23.4375 23.28125 23.421875 23.246094 23.40625 23.210938 C 23.390625 23.179688 23.375 23.140625 23.351562 23.101562 C 23.3125 23.015625 23.253906 22.917969 23.210938 22.796875 C 23.191406 22.734375 23.171875 22.664062 23.15625 22.59375 C 23.144531 22.523438 23.140625 22.457031 23.144531 22.390625 C 23.15625 22.253906 23.195312 22.136719 23.246094 22.03125 C 23.300781 21.925781 23.367188 21.835938 23.445312 21.753906 C 23.488281 21.714844 23.527344 21.679688 23.566406 21.652344 C 23.570312 21.644531 23.578125 21.644531 23.582031 21.636719 C 23.59375 21.628906 23.597656 21.625 23.605469 21.621094 C 23.621094 21.609375 23.636719 21.605469 23.652344 21.601562 C 23.667969 21.59375 23.6875 21.59375 23.703125 21.601562 C 23.742188 21.605469 23.753906 21.625 23.746094 21.640625 Z M 23.746094 21.640625 " fill-opacity="1" fill-rule="nonzero"/><g clip-path="url(#2df7108d81)"><path fill="#fff5e9" d="M 10.429688 26.46875 C 10.429688 26.671875 10.355469 26.84375 10.210938 26.988281 C 10.070312 27.132812 9.894531 27.203125 9.691406 27.203125 C 9.488281 27.203125 9.316406 27.132812 9.171875 26.988281 C 9.027344 26.84375 8.957031 26.671875 8.957031 26.46875 C 8.957031 26.261719 9.027344 26.089844 9.171875 25.945312 C 9.316406 25.800781 9.488281 25.730469 9.691406 25.730469 C 9.894531 25.730469 10.070312 25.800781 10.210938 25.945312 C 10.355469 26.089844 10.429688 26.261719 10.429688 26.46875 Z M 10.429688 26.46875 " fill-opacity="1" fill-rule="nonzero"/></g><g fill="#fefbed" fill-opacity="1"><g transform="translate(12.059906, 20.830646)"><g><path d="M 0.8125 -1.34375 C 0.675781 -1.101562 0.503906 -0.925781 0.296875 -0.8125 C 0.0976562 -0.695312 -0.117188 -0.648438 -0.359375 -0.671875 C -0.609375 -0.691406 -0.863281 -0.78125 -1.125 -0.9375 C -1.375 -1.082031 -1.566406 -1.253906 -1.703125 -1.453125 C -1.847656 -1.648438 -1.921875 -1.863281 -1.921875 -2.09375 C -1.921875 -2.320312 -1.851562 -2.554688 -1.71875 -2.796875 C -1.625 -2.953125 -1.515625 -3.085938 -1.390625 -3.203125 C -1.265625 -3.316406 -1.125 -3.398438 -0.96875 -3.453125 C -0.914062 -3.460938 -0.863281 -3.453125 -0.8125 -3.421875 C -0.78125 -3.398438 -0.757812 -3.375 -0.75 -3.34375 C -0.738281 -3.320312 -0.742188 -3.296875 -0.765625 -3.265625 C -0.773438 -3.242188 -0.796875 -3.21875 -0.828125 -3.1875 C -1.003906 -3.113281 -1.140625 -3.039062 -1.234375 -2.96875 C -1.328125 -2.894531 -1.410156 -2.796875 -1.484375 -2.671875 C -1.640625 -2.398438 -1.671875 -2.140625 -1.578125 -1.890625 C -1.484375 -1.640625 -1.273438 -1.421875 -0.953125 -1.234375 C -0.617188 -1.035156 -0.320312 -0.960938 -0.0625 -1.015625 C 0.195312 -1.066406 0.40625 -1.226562 0.5625 -1.5 C 0.632812 -1.625 0.679688 -1.742188 0.703125 -1.859375 C 0.722656 -1.972656 0.722656 -2.117188 0.703125 -2.296875 C 0.691406 -2.359375 0.691406 -2.398438 0.703125 -2.421875 C 0.722656 -2.453125 0.75 -2.46875 0.78125 -2.46875 C 0.820312 -2.46875 0.859375 -2.457031 0.890625 -2.4375 C 0.941406 -2.40625 0.976562 -2.363281 1 -2.3125 C 1.019531 -2.15625 1.015625 -1.992188 0.984375 -1.828125 C 0.960938 -1.660156 0.90625 -1.5 0.8125 -1.34375 Z M 0.8125 -1.34375 "/></g></g></g><g fill="#fefbed" fill-opacity="1"><g transform="translate(13.807417, 17.907946)"><g><path d="M 1.75 -2.21875 C 1.769531 -2.207031 1.785156 -2.191406 1.796875 -2.171875 C 1.828125 -2.148438 1.84375 -2.117188 1.84375 -2.078125 C 1.84375 -2.035156 1.832031 -2 1.8125 -1.96875 C 1.769531 -1.914062 1.710938 -1.898438 1.640625 -1.921875 L 0.96875 -2.171875 L -0.0625 -1.03125 L 0.21875 -0.359375 C 0.25 -0.296875 0.242188 -0.238281 0.203125 -0.1875 C 0.171875 -0.15625 0.132812 -0.140625 0.09375 -0.140625 C 0.0507812 -0.140625 0.015625 -0.148438 -0.015625 -0.171875 C -0.0234375 -0.191406 -0.0351562 -0.210938 -0.046875 -0.234375 L -1.1875 -2.828125 C -1.207031 -2.847656 -1.210938 -2.878906 -1.203125 -2.921875 C -1.191406 -2.972656 -1.175781 -3.007812 -1.15625 -3.03125 C -1.125 -3.0625 -1.085938 -3.082031 -1.046875 -3.09375 C -1.015625 -3.101562 -0.984375 -3.101562 -0.953125 -3.09375 Z M -0.1875 -1.3125 L 0.671875 -2.265625 L -0.828125 -2.75 Z M -0.1875 -1.3125 "/></g></g></g><g fill="#fefbed" fill-opacity="1"><g transform="translate(16.308104, 15.290706)"><g><path d="M 0.4375 -0.296875 C 0.394531 -0.265625 0.347656 -0.253906 0.296875 -0.265625 C 0.253906 -0.273438 0.21875 -0.300781 0.1875 -0.34375 L -1.328125 -2.390625 C -1.359375 -2.429688 -1.367188 -2.46875 -1.359375 -2.5 C -1.347656 -2.539062 -1.320312 -2.578125 -1.28125 -2.609375 L -0.09375 -3.484375 C -0.0507812 -3.515625 -0.015625 -3.53125 0.015625 -3.53125 C 0.0546875 -3.53125 0.09375 -3.507812 0.125 -3.46875 C 0.144531 -3.4375 0.148438 -3.398438 0.140625 -3.359375 C 0.140625 -3.328125 0.117188 -3.296875 0.078125 -3.265625 L -0.984375 -2.484375 L -0.40625 -1.6875 L 0.59375 -2.421875 C 0.632812 -2.453125 0.671875 -2.460938 0.703125 -2.453125 C 0.742188 -2.453125 0.78125 -2.4375 0.8125 -2.40625 C 0.832031 -2.375 0.835938 -2.335938 0.828125 -2.296875 C 0.828125 -2.265625 0.804688 -2.234375 0.765625 -2.203125 L -0.234375 -1.46875 L 0.453125 -0.53125 C 0.484375 -0.488281 0.5 -0.445312 0.5 -0.40625 C 0.5 -0.363281 0.476562 -0.328125 0.4375 -0.296875 Z M 0.4375 -0.296875 "/></g></g></g><g fill="#fefbed" fill-opacity="1"><g transform="translate(18.715489, 13.582549)"><g><path d="M 0.484375 -0.234375 C 0.429688 -0.210938 0.382812 -0.207031 0.34375 -0.21875 C 0.300781 -0.226562 0.273438 -0.253906 0.265625 -0.296875 L -0.859375 -2.578125 C -0.878906 -2.628906 -0.878906 -2.671875 -0.859375 -2.703125 C -0.847656 -2.742188 -0.816406 -2.773438 -0.765625 -2.796875 L 0.59375 -3.453125 C 0.625 -3.472656 0.65625 -3.484375 0.6875 -3.484375 C 0.726562 -3.484375 0.765625 -3.457031 0.796875 -3.40625 C 0.804688 -3.375 0.800781 -3.335938 0.78125 -3.296875 C 0.757812 -3.265625 0.734375 -3.238281 0.703125 -3.21875 L -0.515625 -2.625 L -0.078125 -1.734375 L 1.0625 -2.296875 C 1.101562 -2.316406 1.140625 -2.316406 1.171875 -2.296875 C 1.203125 -2.285156 1.226562 -2.265625 1.25 -2.234375 C 1.269531 -2.191406 1.273438 -2.148438 1.265625 -2.109375 C 1.253906 -2.078125 1.226562 -2.050781 1.1875 -2.03125 L 0.046875 -1.46875 L 0.5 -0.546875 L 1.71875 -1.140625 C 1.75 -1.160156 1.785156 -1.164062 1.828125 -1.15625 C 1.867188 -1.15625 1.898438 -1.132812 1.921875 -1.09375 C 1.941406 -1.050781 1.941406 -1.007812 1.921875 -0.96875 C 1.898438 -0.9375 1.875 -0.910156 1.84375 -0.890625 Z M 0.484375 -0.234375 "/></g></g></g><g fill="#fefbed" fill-opacity="1"><g transform="translate(21.53658, 12.319447)"><g/></g></g><g fill="#fefbed" fill-opacity="1"><g transform="translate(23.207535, 11.764595)"><g><path d="M 2.140625 -3.203125 C 2.191406 -3.210938 2.226562 -3.203125 2.25 -3.171875 C 2.28125 -3.148438 2.300781 -3.113281 2.3125 -3.0625 L 2.671875 -0.53125 C 2.671875 -0.476562 2.660156 -0.429688 2.640625 -0.390625 C 2.617188 -0.359375 2.582031 -0.335938 2.53125 -0.328125 C 2.476562 -0.328125 2.4375 -0.335938 2.40625 -0.359375 C 2.375 -0.390625 2.359375 -0.429688 2.359375 -0.484375 L 2.1875 -1.625 L 0.5 -1.390625 L 0.671875 -0.25 C 0.671875 -0.195312 0.65625 -0.148438 0.625 -0.109375 C 0.601562 -0.078125 0.566406 -0.0625 0.515625 -0.0625 C 0.460938 -0.0507812 0.421875 -0.0546875 0.390625 -0.078125 C 0.359375 -0.109375 0.34375 -0.148438 0.34375 -0.203125 L -0.015625 -2.734375 C -0.0234375 -2.785156 -0.0195312 -2.828125 0 -2.859375 C 0.03125 -2.898438 0.0703125 -2.925781 0.125 -2.9375 C 0.175781 -2.9375 0.21875 -2.921875 0.25 -2.890625 C 0.28125 -2.867188 0.300781 -2.832031 0.3125 -2.78125 L 0.46875 -1.671875 L 2.15625 -1.90625 L 2 -3.015625 C 1.988281 -3.066406 1.992188 -3.109375 2.015625 -3.140625 C 2.046875 -3.179688 2.085938 -3.203125 2.140625 -3.203125 Z M 2.140625 -3.203125 "/></g></g></g><g fill="#fefbed" fill-opacity="1"><g transform="translate(26.899676, 11.32552)"><g><path d="M 1.546875 0.171875 C 1.285156 0.148438 1.0625 0.0703125 0.875 -0.0625 C 0.6875 -0.207031 0.550781 -0.394531 0.46875 -0.625 C 0.382812 -0.851562 0.351562 -1.117188 0.375 -1.421875 C 0.40625 -1.710938 0.476562 -1.960938 0.59375 -2.171875 C 0.71875 -2.378906 0.882812 -2.53125 1.09375 -2.625 C 1.300781 -2.71875 1.535156 -2.753906 1.796875 -2.734375 C 2.066406 -2.710938 2.289062 -2.632812 2.46875 -2.5 C 2.65625 -2.375 2.789062 -2.195312 2.875 -1.96875 C 2.96875 -1.738281 3 -1.476562 2.96875 -1.1875 C 2.945312 -0.882812 2.867188 -0.628906 2.734375 -0.421875 C 2.609375 -0.210938 2.445312 -0.0546875 2.25 0.046875 C 2.050781 0.148438 1.816406 0.191406 1.546875 0.171875 Z M 1.5625 -0.109375 C 1.851562 -0.0859375 2.09375 -0.171875 2.28125 -0.359375 C 2.476562 -0.546875 2.59375 -0.832031 2.625 -1.21875 C 2.65625 -1.582031 2.597656 -1.875 2.453125 -2.09375 C 2.304688 -2.3125 2.082031 -2.429688 1.78125 -2.453125 C 1.476562 -2.484375 1.234375 -2.40625 1.046875 -2.21875 C 0.859375 -2.03125 0.75 -1.753906 0.71875 -1.390625 C 0.6875 -1.015625 0.742188 -0.710938 0.890625 -0.484375 C 1.035156 -0.265625 1.257812 -0.140625 1.5625 -0.109375 Z M 1.5625 -0.109375 "/></g></g></g><g fill="#fefbed" fill-opacity="1"><g transform="translate(30.629542, 11.754584)"><g><path d="M 0.484375 0.171875 C 0.441406 0.148438 0.410156 0.117188 0.390625 0.078125 C 0.367188 0.046875 0.367188 0.00390625 0.390625 -0.046875 L 1.15625 -2.46875 C 1.164062 -2.519531 1.191406 -2.550781 1.234375 -2.5625 C 1.273438 -2.582031 1.316406 -2.585938 1.359375 -2.578125 L 2.28125 -2.296875 C 2.5625 -2.203125 2.757812 -2.054688 2.875 -1.859375 C 2.988281 -1.671875 3.003906 -1.445312 2.921875 -1.1875 C 2.847656 -0.9375 2.707031 -0.765625 2.5 -0.671875 C 2.289062 -0.585938 2.046875 -0.59375 1.765625 -0.6875 L 1 -0.921875 L 0.703125 0.046875 C 0.679688 0.0976562 0.648438 0.132812 0.609375 0.15625 C 0.578125 0.175781 0.535156 0.179688 0.484375 0.171875 Z M 1.828125 -0.953125 C 2.242188 -0.828125 2.503906 -0.941406 2.609375 -1.296875 C 2.722656 -1.660156 2.570312 -1.90625 2.15625 -2.03125 L 1.421875 -2.265625 L 1.09375 -1.1875 Z M 1.828125 -0.953125 "/></g></g></g><g fill="#fefbed" fill-opacity="1"><g transform="translate(33.748257, 12.798731)"><g><path d="M 0.453125 0.265625 C 0.410156 0.234375 0.378906 0.195312 0.359375 0.15625 C 0.347656 0.125 0.359375 0.0820312 0.390625 0.03125 L 1.609375 -2.203125 C 1.640625 -2.242188 1.671875 -2.265625 1.703125 -2.265625 C 1.742188 -2.273438 1.789062 -2.269531 1.84375 -2.25 L 2.671875 -1.78125 C 2.941406 -1.632812 3.113281 -1.457031 3.1875 -1.25 C 3.269531 -1.050781 3.242188 -0.832031 3.109375 -0.59375 C 2.984375 -0.363281 2.8125 -0.222656 2.59375 -0.171875 C 2.375 -0.117188 2.128906 -0.164062 1.859375 -0.3125 L 1.171875 -0.703125 L 0.6875 0.1875 C 0.65625 0.238281 0.617188 0.269531 0.578125 0.28125 C 0.535156 0.289062 0.492188 0.285156 0.453125 0.265625 Z M 1.96875 -0.5625 C 2.351562 -0.351562 2.632812 -0.414062 2.8125 -0.75 C 3 -1.082031 2.898438 -1.351562 2.515625 -1.5625 L 1.859375 -1.9375 L 1.3125 -0.9375 Z M 1.96875 -0.5625 "/></g></g></g><g fill="#fefbed" fill-opacity="1"><g transform="translate(36.614757, 14.50846)"><g><path d="M 0.390625 0.328125 C 0.347656 0.296875 0.328125 0.257812 0.328125 0.21875 C 0.328125 0.175781 0.34375 0.132812 0.375 0.09375 L 1.9375 -1.9375 C 1.96875 -1.976562 2.003906 -2 2.046875 -2 C 2.085938 -2.007812 2.128906 -2 2.171875 -1.96875 C 2.210938 -1.9375 2.234375 -1.898438 2.234375 -1.859375 C 2.242188 -1.816406 2.234375 -1.773438 2.203125 -1.734375 L 0.640625 0.296875 C 0.609375 0.335938 0.566406 0.359375 0.515625 0.359375 C 0.472656 0.367188 0.429688 0.359375 0.390625 0.328125 Z M 0.390625 0.328125 "/></g></g></g><g fill="#fefbed" fill-opacity="1"><g transform="translate(38.016994, 15.563396)"><g><path d="M 3.828125 -0.140625 C 3.847656 -0.109375 3.851562 -0.0664062 3.84375 -0.015625 C 3.84375 0.0234375 3.828125 0.0664062 3.796875 0.109375 L 1.90625 1.84375 C 1.875 1.882812 1.832031 1.898438 1.78125 1.890625 C 1.738281 1.890625 1.703125 1.875 1.671875 1.84375 C 1.640625 1.800781 1.628906 1.753906 1.640625 1.703125 L 2.140625 -1.0625 L 0.5625 0.390625 C 0.53125 0.429688 0.488281 0.445312 0.4375 0.4375 C 0.394531 0.4375 0.359375 0.414062 0.328125 0.375 C 0.296875 0.351562 0.285156 0.320312 0.296875 0.28125 C 0.304688 0.238281 0.328125 0.195312 0.359375 0.15625 L 2.25 -1.578125 C 2.28125 -1.617188 2.316406 -1.640625 2.359375 -1.640625 C 2.398438 -1.640625 2.4375 -1.625 2.46875 -1.59375 C 2.507812 -1.550781 2.523438 -1.492188 2.515625 -1.421875 L 1.984375 1.328125 L 3.578125 -0.140625 C 3.609375 -0.179688 3.644531 -0.195312 3.6875 -0.1875 C 3.738281 -0.1875 3.785156 -0.171875 3.828125 -0.140625 Z M 3.828125 -0.140625 "/></g></g></g><g fill="#fefbed" fill-opacity="1"><g transform="translate(40.439674, 18.291042)"><g><path d="M 2.53125 1.390625 C 2.550781 1.429688 2.554688 1.46875 2.546875 1.5 C 2.546875 1.53125 2.523438 1.554688 2.484375 1.578125 L 1.609375 2.09375 C 1.554688 2.125 1.507812 2.140625 1.46875 2.140625 C 1.425781 2.140625 1.390625 2.117188 1.359375 2.078125 C 1.253906 2.003906 1.148438 1.910156 1.046875 1.796875 C 0.953125 1.679688 0.863281 1.554688 0.78125 1.421875 C 0.632812 1.171875 0.5625 0.925781 0.5625 0.6875 C 0.5625 0.457031 0.628906 0.238281 0.765625 0.03125 C 0.898438 -0.164062 1.101562 -0.34375 1.375 -0.5 C 1.632812 -0.65625 1.882812 -0.738281 2.125 -0.75 C 2.375 -0.769531 2.597656 -0.71875 2.796875 -0.59375 C 2.992188 -0.476562 3.160156 -0.304688 3.296875 -0.078125 C 3.390625 0.0859375 3.453125 0.253906 3.484375 0.421875 C 3.515625 0.585938 3.515625 0.75 3.484375 0.90625 C 3.453125 0.957031 3.421875 0.992188 3.390625 1.015625 C 3.359375 1.035156 3.320312 1.046875 3.28125 1.046875 C 3.25 1.046875 3.226562 1.03125 3.21875 1 C 3.195312 0.976562 3.191406 0.9375 3.203125 0.875 C 3.210938 0.695312 3.207031 0.546875 3.1875 0.421875 C 3.164062 0.304688 3.117188 0.1875 3.046875 0.0625 C 2.890625 -0.21875 2.679688 -0.378906 2.421875 -0.421875 C 2.160156 -0.460938 1.867188 -0.390625 1.546875 -0.203125 C 1.210938 -0.015625 1 0.203125 0.90625 0.453125 C 0.820312 0.710938 0.863281 0.988281 1.03125 1.28125 C 1.15625 1.5 1.300781 1.675781 1.46875 1.8125 L 2.21875 1.375 L 1.921875 0.859375 C 1.898438 0.828125 1.894531 0.789062 1.90625 0.75 C 1.914062 0.71875 1.9375 0.691406 1.96875 0.671875 C 2.007812 0.648438 2.039062 0.644531 2.0625 0.65625 C 2.09375 0.675781 2.117188 0.703125 2.140625 0.734375 Z M 2.53125 1.390625 "/></g></g></g><g clip-path="url(#8050209b4a)"><path fill="#fff5e9" d="M 44.972656 26.46875 C 44.972656 26.671875 44.902344 26.84375 44.757812 26.988281 C 44.613281 27.132812 44.441406 27.203125 44.238281 27.203125 C 44.035156 27.203125 43.859375 27.132812 43.714844 26.988281 C 43.574219 26.84375 43.5 26.671875 43.5 26.46875 C 43.5 26.261719 43.574219 26.089844 43.714844 25.945312 C 43.859375 25.800781 44.035156 25.730469 44.238281 25.730469 C 44.441406 25.730469 44.613281 25.800781 44.757812 25.945312 C 44.902344 26.089844 44.972656 26.261719 44.972656 26.46875 Z M 44.972656 26.46875 " fill-opacity="1" fill-rule="nonzero"/></g></svg>