<svg xmlns="http://www.w3.org/2000/svg" xmlns:xlink="http://www.w3.org/1999/xlink" width="300" zoomAndPan="magnify" viewBox="0 0 224.87999 225" height="300" preserveAspectRatio="xMidYMid meet" version="1.0"><defs><clipPath id="fe13aa5d91"><path d="M 21.621094 21.679688 L 203.257812 21.679688 L 203.257812 203.320312 L 21.621094 203.320312 Z M 21.621094 21.679688 " clip-rule="nonzero"/></clipPath><clipPath id="1d36a20163"><path d="M 112.441406 21.679688 C 62.28125 21.679688 21.621094 62.34375 21.621094 112.5 C 21.621094 162.65625 62.28125 203.320312 112.441406 203.320312 C 162.597656 203.320312 203.257812 162.65625 203.257812 112.5 C 203.257812 62.34375 162.597656 21.679688 112.441406 21.679688 " clip-rule="nonzero"/></clipPath><clipPath id="98518d77e5"><path d="M 60.726562 162 L 160 162 L 160 175.539062 L 60.726562 175.539062 Z M 60.726562 162 " clip-rule="nonzero"/></clipPath><clipPath id="f5a4401464"><path d="M 60.726562 103 L 177 103 L 177 169 L 60.726562 169 Z M 60.726562 103 " clip-rule="nonzero"/></clipPath><clipPath id="0743e09e37"><path d="M 104 40.613281 L 116 40.613281 L 116 98 L 104 98 Z M 104 40.613281 " clip-rule="nonzero"/></clipPath></defs><g clip-path="url(#fe13aa5d91)"><g clip-path="url(#1d36a20163)"><path fill="#5c3f32" d="M 21.621094 21.679688 L 203.257812 21.679688 L 203.257812 203.320312 L 21.621094 203.320312 Z M 21.621094 21.679688 " fill-opacity="1" fill-rule="nonzero"/></g></g><g clip-path="url(#98518d77e5)"><path fill="#fefbed" d="M 159.863281 162.339844 C 159.863281 169.609375 137.683594 175.480469 110.308594 175.480469 C 82.933594 175.480469 60.726562 169.582031 60.726562 162.339844 " fill-opacity="1" fill-rule="nonzero"/></g><g clip-path="url(#f5a4401464)"><path fill="#fefbed" d="M 172.996094 118.226562 C 169.5 114.671875 164.359375 113.460938 159.164062 114.457031 C 159.621094 110.847656 159.863281 107.132812 159.863281 103.335938 L 60.726562 103.335938 C 60.726562 139.558594 82.90625 168.910156 110.28125 168.910156 C 124.789062 168.910156 137.84375 160.671875 146.886719 147.527344 C 153.292969 151.835938 163.121094 150.273438 170.089844 143.433594 C 177.871094 135.8125 179.160156 124.503906 172.996094 118.226562 Z M 171.894531 131.640625 C 171.4375 135.679688 169.390625 139.636719 166.160156 142.816406 C 162.929688 145.992188 158.921875 147.960938 154.882812 148.335938 C 152.054688 148.605469 149.472656 148.066406 147.398438 146.800781 C 152.59375 139.046875 156.445312 129.621094 158.382812 119.226562 C 158.757812 119.171875 159.164062 119.117188 159.539062 119.0625 C 163.335938 118.714844 166.671875 119.789062 168.988281 122.132812 C 171.273438 124.476562 172.324219 127.871094 171.894531 131.640625 Z M 171.894531 131.640625 " fill-opacity="1" fill-rule="nonzero"/></g><g clip-path="url(#0743e09e37)"><path fill="#fefbed" d="M 110.550781 41.074219 C 110.46875 40.914062 110.308594 40.859375 110.171875 40.914062 C 110.039062 40.9375 109.902344 41.046875 109.796875 41.128906 C 109.6875 41.234375 109.582031 41.34375 109.527344 41.476562 C 109.5 41.53125 109.472656 41.613281 109.445312 41.667969 L 109.363281 41.882812 C 109.121094 42.5 108.90625 43.121094 108.71875 43.738281 C 108.34375 44.980469 108.074219 46.21875 107.9375 47.457031 C 107.804688 48.667969 107.859375 49.878906 108.074219 50.984375 C 108.152344 51.253906 108.179688 51.523438 108.289062 51.792969 L 108.421875 52.195312 L 108.585938 52.574219 C 108.773438 53.085938 109.070312 53.570312 109.339844 54.054688 C 109.632812 54.539062 109.984375 55.023438 110.359375 55.535156 L 111.546875 57.070312 C 111.949219 57.609375 112.378906 58.175781 112.785156 58.765625 C 113.1875 59.386719 113.5625 60.003906 113.914062 60.652344 C 114.613281 61.972656 115.179688 63.371094 115.527344 64.878906 C 115.90625 66.386719 116.015625 68.03125 115.824219 69.621094 C 115.71875 70.425781 115.554688 71.183594 115.367188 71.9375 C 115.152344 72.691406 114.882812 73.390625 114.613281 74.089844 C 114.023438 75.464844 113.320312 76.703125 112.59375 77.886719 C 111.867188 79.070312 111.140625 80.148438 110.441406 81.226562 C 110.09375 81.765625 109.769531 82.304688 109.445312 82.84375 C 109.121094 83.382812 108.828125 83.894531 108.585938 84.429688 C 108.316406 84.96875 108.074219 85.507812 107.882812 86.046875 C 107.695312 86.585938 107.535156 87.152344 107.398438 87.691406 C 107.183594 88.792969 107.15625 89.953125 107.375 91.109375 C 107.480469 91.675781 107.640625 92.242188 107.882812 92.78125 C 108.125 93.316406 108.421875 93.828125 108.800781 94.289062 C 108.878906 94.421875 109.015625 94.503906 109.097656 94.609375 C 109.148438 94.664062 109.203125 94.71875 109.257812 94.773438 L 109.417969 94.90625 C 109.632812 95.09375 109.957031 95.3125 110.226562 95.582031 C 110.496094 95.847656 110.710938 96.117188 110.871094 96.46875 C 110.953125 96.628906 111.007812 96.847656 110.980469 97.035156 C 110.953125 97.222656 110.820312 97.382812 110.683594 97.464844 C 110.792969 97.332031 110.820312 97.167969 110.792969 97.035156 C 110.765625 96.898438 110.683594 96.792969 110.578125 96.683594 C 110.359375 96.46875 110.09375 96.308594 109.824219 96.171875 C 109.527344 96.039062 109.285156 95.957031 108.90625 95.824219 L 108.664062 95.714844 C 108.585938 95.6875 108.503906 95.632812 108.421875 95.582031 C 108.261719 95.5 108.101562 95.417969 107.9375 95.3125 C 106.671875 94.503906 105.730469 93.238281 105.113281 91.863281 C 104.816406 91.164062 104.574219 90.4375 104.4375 89.710938 C 104.304688 88.957031 104.222656 88.203125 104.222656 87.421875 C 104.222656 86.640625 104.332031 85.914062 104.464844 85.160156 C 104.601562 84.429688 104.789062 83.703125 105.03125 83.003906 C 105.488281 81.605469 106.082031 80.3125 106.726562 79.097656 C 107.347656 77.859375 108.019531 76.703125 108.613281 75.597656 C 109.796875 73.363281 110.792969 71.183594 111.035156 69.082031 C 111.277344 67.035156 110.765625 64.828125 109.824219 62.671875 C 109.582031 62.132812 109.3125 61.59375 109.015625 61.082031 C 108.71875 60.570312 108.394531 60.03125 108.046875 59.46875 C 107.347656 58.363281 106.59375 57.152344 105.972656 55.777344 C 105.652344 55.078125 105.410156 54.351562 105.21875 53.570312 C 105.03125 52.816406 104.949219 52.035156 104.921875 51.253906 C 104.898438 49.71875 105.164062 48.238281 105.652344 46.890625 C 106.136719 45.542969 106.753906 44.277344 107.535156 43.121094 C 107.910156 42.554688 108.316406 41.988281 108.773438 41.476562 L 108.933594 41.289062 C 109.015625 41.207031 109.070312 41.128906 109.148438 41.074219 C 109.3125 40.9375 109.472656 40.859375 109.632812 40.777344 C 109.796875 40.695312 110.011719 40.671875 110.199219 40.671875 C 110.308594 40.671875 110.386719 40.722656 110.46875 40.777344 C 110.496094 40.914062 110.523438 40.992188 110.550781 41.074219 Z M 110.550781 41.074219 " fill-opacity="1" fill-rule="nonzero"/></g><path fill="#fefbed" d="M 125.273438 57.691406 C 125.191406 57.582031 125.085938 57.582031 125.03125 57.609375 C 124.949219 57.636719 124.871094 57.714844 124.816406 57.769531 C 124.761719 57.851562 124.707031 57.933594 124.679688 58.011719 C 124.652344 58.039062 124.652344 58.09375 124.652344 58.121094 L 124.601562 58.28125 C 124.464844 58.714844 124.359375 59.117188 124.277344 59.546875 C 124.089844 60.382812 123.980469 61.21875 123.953125 62 C 123.925781 62.78125 124.007812 63.535156 124.195312 64.207031 C 124.304688 64.53125 124.410156 64.851562 124.546875 65.148438 C 124.679688 65.445312 124.871094 65.714844 125.058594 66.011719 C 125.246094 66.308594 125.488281 66.605469 125.730469 66.898438 L 126.539062 67.894531 C 126.808594 68.246094 127.128906 68.625 127.398438 69.054688 C 127.667969 69.457031 127.9375 69.890625 128.207031 70.347656 C 128.691406 71.261719 129.121094 72.230469 129.363281 73.308594 C 129.632812 74.386719 129.714844 75.542969 129.582031 76.730469 C 129.5 77.292969 129.390625 77.859375 129.257812 78.398438 C 129.09375 78.9375 128.90625 79.421875 128.71875 79.90625 C 128.316406 80.847656 127.804688 81.710938 127.320312 82.492188 C 126.808594 83.273438 126.324219 84 125.839844 84.671875 C 125.597656 85.023438 125.382812 85.347656 125.164062 85.695312 C 124.949219 86.019531 124.761719 86.34375 124.574219 86.695312 C 124.410156 87.015625 124.222656 87.339844 124.089844 87.691406 C 123.953125 88.011719 123.820312 88.363281 123.738281 88.6875 C 123.578125 89.332031 123.496094 90.058594 123.578125 90.761719 C 123.605469 91.109375 123.683594 91.460938 123.792969 91.808594 C 123.902344 92.160156 124.0625 92.484375 124.277344 92.804688 C 124.332031 92.886719 124.386719 92.941406 124.4375 93.023438 C 124.492188 93.101562 124.574219 93.15625 124.628906 93.238281 C 124.734375 93.371094 124.976562 93.535156 125.140625 93.722656 C 125.300781 93.910156 125.460938 94.125 125.542969 94.367188 C 125.597656 94.503906 125.625 94.636719 125.597656 94.773438 C 125.570312 94.90625 125.460938 95.015625 125.355469 95.070312 C 125.40625 94.960938 125.433594 94.851562 125.382812 94.773438 C 125.355469 94.691406 125.300781 94.636719 125.21875 94.558594 C 125.058594 94.449219 124.898438 94.367188 124.707031 94.289062 C 124.519531 94.207031 124.359375 94.207031 124.089844 94.097656 C 123.953125 94.070312 123.847656 94.019531 123.738281 93.964844 C 123.632812 93.910156 123.496094 93.855469 123.390625 93.777344 C 122.472656 93.265625 121.746094 92.402344 121.289062 91.460938 C 121.046875 90.976562 120.886719 90.464844 120.75 89.953125 C 120.617188 89.441406 120.5625 88.902344 120.5625 88.335938 C 120.5625 87.769531 120.617188 87.257812 120.699219 86.746094 C 120.777344 86.234375 120.886719 85.722656 121.046875 85.238281 C 121.207031 84.753906 121.371094 84.296875 121.558594 83.839844 C 121.746094 83.382812 121.9375 82.949219 122.152344 82.546875 C 122.554688 81.710938 122.984375 80.929688 123.363281 80.203125 C 124.117188 78.722656 124.679688 77.375 124.816406 76.191406 C 124.949219 75.03125 124.679688 73.738281 124.117188 72.394531 C 123.820312 71.71875 123.496094 71.101562 123.066406 70.347656 C 122.636719 69.59375 122.125 68.785156 121.71875 67.789062 C 121.503906 67.304688 121.34375 66.765625 121.234375 66.199219 C 121.101562 65.660156 121.074219 65.09375 121.074219 64.558594 C 121.101562 63.480469 121.316406 62.457031 121.691406 61.515625 C 122.070312 60.597656 122.554688 59.761719 123.121094 59.007812 C 123.417969 58.632812 123.710938 58.28125 124.035156 57.960938 L 124.167969 57.824219 C 124.222656 57.769531 124.277344 57.714844 124.332031 57.691406 C 124.4375 57.609375 124.574219 57.554688 124.679688 57.5 C 124.816406 57.472656 124.949219 57.449219 125.085938 57.449219 C 125.164062 57.472656 125.21875 57.5 125.273438 57.554688 C 125.246094 57.582031 125.246094 57.636719 125.273438 57.691406 Z M 125.273438 57.691406 " fill-opacity="1" fill-rule="nonzero"/><path fill="#fefbed" d="M 95.234375 73.175781 C 95.179688 73.121094 95.125 73.148438 95.097656 73.175781 C 95.070312 73.203125 95.046875 73.253906 95.019531 73.308594 C 94.992188 73.363281 94.992188 73.417969 94.964844 73.445312 C 94.964844 73.472656 94.964844 73.496094 94.964844 73.496094 C 94.964844 73.523438 94.964844 73.550781 94.964844 73.605469 C 94.9375 73.875 94.910156 74.144531 94.882812 74.386719 C 94.855469 74.898438 94.855469 75.382812 94.910156 75.8125 C 94.964844 76.246094 95.070312 76.621094 95.234375 76.917969 C 95.3125 77.050781 95.394531 77.214844 95.476562 77.320312 C 95.554688 77.429688 95.664062 77.539062 95.773438 77.671875 C 96.015625 77.914062 96.308594 78.238281 96.660156 78.640625 C 97.011719 79.046875 97.441406 79.582031 97.765625 80.148438 C 98.085938 80.742188 98.382812 81.386719 98.570312 82.089844 C 98.757812 82.816406 98.8125 83.625 98.734375 84.40625 C 98.679688 84.808594 98.597656 85.183594 98.515625 85.535156 C 98.410156 85.886719 98.273438 86.207031 98.140625 86.53125 C 97.871094 87.152344 97.546875 87.691406 97.226562 88.148438 C 96.578125 89.089844 95.988281 89.761719 95.53125 90.410156 C 95.070312 91.054688 94.75 91.566406 94.667969 92.347656 C 94.640625 92.539062 94.640625 92.726562 94.667969 92.914062 C 94.695312 93.101562 94.722656 93.292969 94.804688 93.480469 C 94.828125 93.558594 94.882812 93.667969 94.9375 93.777344 C 94.964844 93.855469 95.125 93.992188 95.207031 94.125 C 95.289062 94.261719 95.394531 94.421875 95.421875 94.582031 C 95.449219 94.664062 95.449219 94.773438 95.421875 94.878906 C 95.394531 94.988281 95.3125 95.042969 95.234375 95.042969 C 95.261719 94.960938 95.261719 94.90625 95.207031 94.878906 C 95.179688 94.851562 95.125 94.828125 95.070312 94.800781 C 94.964844 94.773438 94.855469 94.746094 94.75 94.71875 C 94.640625 94.691406 94.558594 94.71875 94.371094 94.664062 C 94.210938 94.636719 94.050781 94.558594 93.886719 94.503906 C 93.242188 94.234375 92.730469 93.695312 92.378906 93.074219 C 92.03125 92.457031 91.816406 91.78125 91.761719 91.027344 C 91.734375 90.652344 91.761719 90.300781 91.789062 89.980469 C 91.816406 89.628906 91.894531 89.304688 91.976562 88.984375 C 92.300781 87.714844 92.835938 86.667969 93.214844 85.832031 C 93.617188 84.996094 93.859375 84.296875 93.886719 83.839844 C 93.914062 83.625 93.914062 83.382812 93.859375 83.113281 C 93.832031 82.84375 93.726562 82.519531 93.617188 82.167969 C 93.566406 82.007812 93.484375 81.820312 93.402344 81.628906 C 93.324219 81.46875 93.242188 81.253906 93.105469 81.039062 C 92.890625 80.582031 92.59375 80.070312 92.351562 79.394531 C 92.246094 79.070312 92.136719 78.695312 92.058594 78.316406 C 92.003906 77.941406 91.976562 77.5625 92.003906 77.214844 C 92.058594 76.488281 92.273438 75.839844 92.542969 75.273438 C 92.835938 74.710938 93.1875 74.226562 93.617188 73.792969 C 93.832031 73.578125 94.050781 73.390625 94.265625 73.226562 C 94.292969 73.203125 94.316406 73.203125 94.34375 73.148438 C 94.398438 73.121094 94.425781 73.09375 94.480469 73.066406 C 94.558594 73.011719 94.640625 72.984375 94.722656 72.960938 C 94.804688 72.933594 94.910156 72.933594 94.992188 72.960938 C 95.207031 72.984375 95.261719 73.09375 95.234375 73.175781 Z M 95.234375 73.175781 " fill-opacity="1" fill-rule="nonzero"/></svg>